<svg width="48" height="48" viewBox="0 0 48 48" fill="none" xmlns="http://www.w3.org/2000/svg">
  <path fill-rule="evenodd" clip-rule="evenodd" d="M 12.43 41.17 L 6.40 41.17 L 6.15 40.92 L 4.06 40.92 L 4.00 40.62 L 15.63 38.46 L 21.05 36.98 L 22.03 36.49 L 22.09 36.18 L 17.35 35.38 L 12.68 33.91 L 10.77 32.49 L 10.28 31.51 L 10.52 29.78 L 12.55 28.00 L 15.02 27.02 L 19.08 26.15 L 19.20 25.91 L 30.89 23.94 L 35.08 22.46 L 35.63 21.91 L 35.63 21.54 L 33.42 19.20 L 32.18 16.98 L 32.06 16.25 L 31.69 16.00 L 31.82 15.51 L 31.32 14.28 L 31.32 11.82 L 31.94 10.09 L 34.09 7.69 L 36.18 6.83 L 39.14 6.83 L 42.46 8.68 L 43.51 10.22 L 44.00 11.69 L 43.75 15.51 L 42.52 18.22 L 41.05 20.43 L 37.91 24.06 L 37.29 24.31 L 36.68 25.05 L 34.71 26.03 L 31.75 27.02 L 20.80 29.11 L 17.72 30.09 L 17.17 30.65 L 17.48 31.20 L 18.71 31.69 L 25.97 32.92 L 29.17 33.78 L 30.65 34.52 L 31.69 35.57 L 31.69 36.80 L 30.65 37.85 L 26.95 39.32 L 20.68 40.43 L 16.86 40.68 L 16.49 40.92 L 12.80 40.92 L 12.43 41.17 Z M 38.34 15.63 L 39.14 15.20 L 39.94 14.15 L 39.94 12.31 L 39.14 11.26 L 38.77 11.26 L 38.15 10.77 L 37.17 10.77 L 35.75 11.57 L 35.75 11.94 L 35.26 12.55 L 35.26 13.91 L 36.06 15.20 L 36.43 15.20 L 37.05 15.69 L 38.34 15.63 Z" fill="#9A8CFF"/>
</svg>
